<svg id="visual" viewBox="0 0 960 540" width="960" height="540" xmlns="http://www.w3.org/2000/svg" xmlns:xlink="http://www.w3.org/1999/xlink" version="1.1"><rect x="0" y="0" width="960" height="540" fill="#001220"></rect><defs><linearGradient id="grad1_0" x1="43.8%" y1="0%" x2="100%" y2="100%"><stop offset="14.444444444444446%" stop-color="#009473" stop-opacity="1"></stop><stop offset="85.55555555555554%" stop-color="#009473" stop-opacity="1"></stop></linearGradient></defs><defs><linearGradient id="grad1_1" x1="43.8%" y1="0%" x2="100%" y2="100%"><stop offset="14.444444444444446%" stop-color="#009473" stop-opacity="1"></stop><stop offset="85.55555555555554%" stop-color="#008172" stop-opacity="1"></stop></linearGradient></defs><defs><linearGradient id="grad1_2" x1="43.8%" y1="0%" x2="100%" y2="100%"><stop offset="14.444444444444446%" stop-color="#006d6d" stop-opacity="1"></stop><stop offset="85.55555555555554%" stop-color="#008172" stop-opacity="1"></stop></linearGradient></defs><defs><linearGradient id="grad1_3" x1="43.8%" y1="0%" x2="100%" y2="100%"><stop offset="14.444444444444446%" stop-color="#006d6d" stop-opacity="1"></stop><stop offset="85.55555555555554%" stop-color="#005964" stop-opacity="1"></stop></linearGradient></defs><defs><linearGradient id="grad1_4" x1="43.8%" y1="0%" x2="100%" y2="100%"><stop offset="14.444444444444446%" stop-color="#004657" stop-opacity="1"></stop><stop offset="85.55555555555554%" stop-color="#005964" stop-opacity="1"></stop></linearGradient></defs><defs><linearGradient id="grad1_5" x1="43.8%" y1="0%" x2="100%" y2="100%"><stop offset="14.444444444444446%" stop-color="#004657" stop-opacity="1"></stop><stop offset="85.55555555555554%" stop-color="#003446" stop-opacity="1"></stop></linearGradient></defs><defs><linearGradient id="grad1_6" x1="43.8%" y1="0%" x2="100%" y2="100%"><stop offset="14.444444444444446%" stop-color="#002334" stop-opacity="1"></stop><stop offset="85.55555555555554%" stop-color="#003446" stop-opacity="1"></stop></linearGradient></defs><defs><linearGradient id="grad1_7" x1="43.8%" y1="0%" x2="100%" y2="100%"><stop offset="14.444444444444446%" stop-color="#002334" stop-opacity="1"></stop><stop offset="85.55555555555554%" stop-color="#001220" stop-opacity="1"></stop></linearGradient></defs><defs><linearGradient id="grad2_0" x1="0%" y1="0%" x2="56.3%" y2="100%"><stop offset="14.444444444444446%" stop-color="#009473" stop-opacity="1"></stop><stop offset="85.55555555555554%" stop-color="#009473" stop-opacity="1"></stop></linearGradient></defs><defs><linearGradient id="grad2_1" x1="0%" y1="0%" x2="56.3%" y2="100%"><stop offset="14.444444444444446%" stop-color="#008172" stop-opacity="1"></stop><stop offset="85.55555555555554%" stop-color="#009473" stop-opacity="1"></stop></linearGradient></defs><defs><linearGradient id="grad2_2" x1="0%" y1="0%" x2="56.3%" y2="100%"><stop offset="14.444444444444446%" stop-color="#008172" stop-opacity="1"></stop><stop offset="85.55555555555554%" stop-color="#006d6d" stop-opacity="1"></stop></linearGradient></defs><defs><linearGradient id="grad2_3" x1="0%" y1="0%" x2="56.3%" y2="100%"><stop offset="14.444444444444446%" stop-color="#005964" stop-opacity="1"></stop><stop offset="85.55555555555554%" stop-color="#006d6d" stop-opacity="1"></stop></linearGradient></defs><defs><linearGradient id="grad2_4" x1="0%" y1="0%" x2="56.3%" y2="100%"><stop offset="14.444444444444446%" stop-color="#005964" stop-opacity="1"></stop><stop offset="85.55555555555554%" stop-color="#004657" stop-opacity="1"></stop></linearGradient></defs><defs><linearGradient id="grad2_5" x1="0%" y1="0%" x2="56.3%" y2="100%"><stop offset="14.444444444444446%" stop-color="#003446" stop-opacity="1"></stop><stop offset="85.55555555555554%" stop-color="#004657" stop-opacity="1"></stop></linearGradient></defs><defs><linearGradient id="grad2_6" x1="0%" y1="0%" x2="56.3%" y2="100%"><stop offset="14.444444444444446%" stop-color="#003446" stop-opacity="1"></stop><stop offset="85.55555555555554%" stop-color="#002334" stop-opacity="1"></stop></linearGradient></defs><defs><linearGradient id="grad2_7" x1="0%" y1="0%" x2="56.3%" y2="100%"><stop offset="14.444444444444446%" stop-color="#001220" stop-opacity="1"></stop><stop offset="85.55555555555554%" stop-color="#002334" stop-opacity="1"></stop></linearGradient></defs><g transform="translate(960, 0)"><path d="M0 486C-53.8 451.1 -107.6 416.3 -162.6 392.6C-217.7 369 -273.9 356.7 -325.3 325.3C-376.6 293.9 -423 243.4 -449 186C-475 128.6 -480.5 64.3 -486 0L0 0Z" fill="#011a2a"></path><path d="M0 425.3C-47.1 394.7 -94.2 364.2 -142.3 343.6C-190.5 322.9 -239.7 312.1 -284.6 284.6C-329.5 257.1 -370.2 213 -392.9 162.7C-415.6 112.5 -420.4 56.3 -425.2 0L0 0Z" fill="#002b3d"></path><path d="M0 364.5C-40.4 338.3 -80.7 312.2 -122 294.5C-163.3 276.8 -205.4 267.5 -244 244C-282.5 220.4 -317.3 182.5 -336.8 139.5C-356.2 96.4 -360.4 48.2 -364.5 0L0 0Z" fill="#003d4f"></path><path d="M0 303.8C-33.6 282 -67.3 260.2 -101.7 245.4C-136 230.6 -171.2 222.9 -203.3 203.3C-235.4 183.7 -264.4 152.1 -280.6 116.2C-296.9 80.4 -300.3 40.2 -303.7 0L0 0Z" fill="#00505e"></path><path d="M0 243C-26.9 225.6 -53.8 208.1 -81.3 196.3C-108.8 184.5 -137 178.3 -162.6 162.6C-188.3 146.9 -211.5 121.7 -224.5 93C-237.5 64.3 -240.2 32.1 -243 0L0 0Z" fill="#006369"></path><path d="M0 182.3C-20.2 169.2 -40.4 156.1 -61 147.2C-81.6 138.4 -102.7 133.8 -122 122C-141.2 110.2 -158.6 91.3 -168.4 69.7C-178.1 48.2 -180.2 24.1 -182.2 0L0 0Z" fill="#007770"></path><path d="M0 121.5C-13.5 112.8 -26.9 104.1 -40.7 98.2C-54.4 92.3 -68.5 89.2 -81.3 81.3C-94.2 73.5 -105.8 60.8 -112.3 46.5C-118.7 32.1 -120.1 16.1 -121.5 0L0 0Z" fill="#008a73"></path><path d="M0 60.8C-6.7 56.4 -13.5 52 -20.3 49.1C-27.2 46.1 -34.2 44.6 -40.7 40.7C-47.1 36.7 -52.9 30.4 -56.1 23.2C-59.4 16.1 -60.1 8 -60.7 0L0 0Z" fill="#009473"></path></g><g transform="translate(0, 540)"><path d="M0 -486C63.6 -480.4 127.3 -474.8 186 -449C244.7 -423.2 298.4 -377.3 323.1 -323.1C347.9 -269 343.6 -206.8 365.9 -151.5C388.2 -96.3 437.1 -48.2 486 0L0 0Z" fill="#011a2a"></path><path d="M0 -425.2C55.7 -420.3 111.4 -415.4 162.7 -392.9C214.1 -370.3 261.1 -330.1 282.8 -282.8C304.4 -235.4 300.6 -180.9 320.1 -132.6C339.6 -84.3 382.4 -42.1 425.3 0L0 0Z" fill="#002b3d"></path><path d="M0 -364.5C47.7 -360.3 95.5 -356.1 139.5 -336.8C183.5 -317.4 223.8 -282.9 242.4 -242.4C260.9 -201.8 257.7 -155.1 274.4 -113.7C291.1 -72.2 327.8 -36.1 364.5 0L0 0Z" fill="#003d4f"></path><path d="M0 -303.7C39.8 -300.2 79.6 -296.7 116.2 -280.6C152.9 -264.5 186.5 -235.8 202 -202C217.4 -168.1 214.7 -129.2 228.7 -94.7C242.6 -60.2 273.2 -30.1 303.8 0L0 0Z" fill="#00505e"></path><path d="M0 -243C31.8 -240.2 63.6 -237.4 93 -224.5C122.3 -211.6 149.2 -188.6 161.6 -161.6C173.9 -134.5 171.8 -103.4 182.9 -75.8C194.1 -48.2 218.5 -24.1 243 0L0 0Z" fill="#006369"></path><path d="M0 -182.2C23.9 -180.1 47.7 -178 69.7 -168.4C91.8 -158.7 111.9 -141.5 121.2 -121.2C130.4 -100.9 128.8 -77.5 137.2 -56.8C145.6 -36.1 163.9 -18.1 182.3 0L0 0Z" fill="#007770"></path><path d="M0 -121.5C15.9 -120.1 31.8 -118.7 46.5 -112.3C61.2 -105.8 74.6 -94.3 80.8 -80.8C87 -67.3 85.9 -51.7 91.5 -37.9C97 -24.1 109.3 -12 121.5 0L0 0Z" fill="#008a73"></path><path d="M0 -60.7C8 -60 15.9 -59.3 23.2 -56.1C30.6 -52.9 37.3 -47.2 40.4 -40.4C43.5 -33.6 42.9 -25.8 45.7 -18.9C48.5 -12 54.6 -6 60.8 0L0 0Z" fill="#009473"></path></g></svg>