<svg id="visual" viewBox="0 0 960 540" width="960" height="540" xmlns="http://www.w3.org/2000/svg" xmlns:xlink="http://www.w3.org/1999/xlink" version="1.1"><rect x="0" y="0" width="960" height="540" fill="#FFFFFF"></rect><g transform="translate(455.987739073338 253.23750008694674)"><path d="M137 -237.1C161.6 -223.2 154.4 -154.1 180.6 -105.4C206.8 -56.7 266.4 -28.3 289.2 13.2C312 54.7 298 109.3 266.6 149C235.2 188.7 186.4 213.4 139 231.1C91.7 248.8 45.8 259.4 -4.5 267.2C-54.8 275 -109.7 279.9 -143.9 254.7C-178.1 229.4 -191.7 174 -209.7 126.5C-227.8 79 -250.4 39.5 -252.3 -1.1C-254.2 -41.7 -235.3 -83.3 -211.7 -121.1C-188 -159 -159.5 -192.9 -123.4 -200.2C-87.3 -207.5 -43.7 -188.1 6.3 -199C56.2 -209.9 112.5 -251.1 137 -237.1" fill="#001220"></path></g></svg>